/* XPM */
static char *result[] = {
/* columns rows colors chars-per-pixel */
"50 50 42 1 ",
"  c #7F6546",
". c #816546",
"X c #8B6E4C",
"o c #8E714C",
"O c #91744E",
"+ c #8E7353",
"@ c #8F7950",
"# c #937653",
"$ c #957A55",
"% c #9A7C56",
"& c #93775C",
"* c #967B5B",
"= c #9B7E5B",
"- c #A07F56",
"; c #A17E5D",
": c #957D61",
"> c #9C7E61",
", c #9A8257",
"< c #9E815C",
"1 c #9F895C",
"2 c #A18057",
"3 c #A2845D",
"4 c #A5895E",
"5 c #AA895F",
"6 c #968164",
"7 c #9E8361",
"8 c #9D8967",
"9 c #A38561",
"0 c #A88662",
"q c #A68962",
"w c #AA8C64",
"e c #A5896A",
"r c #AB8D69",
"t c #B08F64",
"y c #AE9166",
"u c #AF9269",
"i c #B19066",
"p c #B3946B",
"a c #B9976D",
"s c #B9986F",
"d c #B39674",
"f c #B79C74",
/* pixels */
"9%3339933=33==$%%%=9====<===<=<97977314q,<%40www34",
"+%779==3=999333339;99=>=>9=>=<799997777762=3www032",
"<<79399=-3339933999>;7><=77===79e7=993193%23wr9313",
"7779399;3,<33993393==9=>7=977>9799=194<q3<r9qq9973",
"e799>9=;,%35q3q33===<===97999>==37934q444qq99339>=",
"77==9992<3w4344q9==>9=89>977==>7779234544qq33333>%",
">%%9999<3y53343<%=-%=3=9e997>==997344wwyqw4q333=&%",
"=%=333994444442<==93<q332e9<*<7<9325wtyywwq93333=#",
"=,=33939345433<==<<$yywwrrq<<=6<;3qsuwuywqq933339=",
"6<333333344333<<=+o*de4eeqq67<9,93pwyiywwq9933397;",
"7<<<=3<335333;3>7&d#e734eq,<*8&=;rwqyqww5w03339393",
"73<==<2334399=9>#=d*%,3933%%=<%93wqrqq43333=393390",
"7<<<,-33930399==#r<9943q3<=997eqw000999-33,9;q3979",
"79<<3=q593999<=9r93q231<<;7997w993390r=e3<wq39999;",
"7<<93$3qq999993wrqq333<=<<;999q93332e%*9<qu399=969",
"718*9#299393999w9393=2,33<99=2993999e.97<qawe997==",
"<<7<r9X3q332q9933$3%23<339993=3=99e9>77<<uqr99=9=%",
"77=>e=%0933443339o$=q3<2<3999939>:98.&6+1fr9w39;*%",
"767*%=>0<3445q433X233%3039ee1179**X e&>=<w,3=e9=*=",
"7,7>==%;qww4w433O33243339339977=&&+=:67=,13299%==*",
"=$<7==3rpuww0q23#339q33399339==%&#%7>=%wr33393=;=2",
">**793qrwrw9qq3%<233q99q33997%*9%>;>===w92239<9=6<",
"=#%7e0rwwrq93=3-3<9930333999;;9>999%$$e93-933<<9<3",
"8$<79r;q9rw993=329933q393999%==939e6*==<=293993>99",
"8===<<9r9qwwe293q933333433933;399996$$=%2<32333>7=",
"*$##*%3w9ww0ew9q333333330qq033<3333<$#33323,3;=99;",
"*#*%=r99wrwwq0q993,23q433qq9e39=<<<*$X=92<33=;3772",
"*=%9ww990wwqqq3323344443qq99;3=3<2<<=X2933333<=<<=",
">9wwe39wwqeqq93,9w43344309939===2339%o45w333q<9w9<",
"99q3330rrw993333uqqq4342-393==<;<23%%$<44433399963",
"99q939rww339q32qyw54qq32399ee9==,<2=<,43,444q99792",
"qqqq09rw323q9944ywwq34443rrr99323<39243543w5w<9993",
"79qqqqrr%3q939riywr4q9444weq9=9;3333133453q433997=",
"99qq9q35<rrqw<ypyiwwwr4wwq<<>;9=393933334yq33333>=",
"79qqwqw54qqq33pppiwwrwwe9>=69==-23qw4q44qu93<3<==%",
"6%9e3q4qw4q92waaptyrweeq==779=%%<4qwrww4qr332<2<==",
"*$3=$$%w335;4ipaayqqqre77>977=%%%335q544qwq3332<=<",
"%$#&;-9333-tssappiq49r<=99333=%$<,,3yuuy5qq9<=3<%9",
"%*%==9;3;4iattiapw4we431341,<=%$$4ppwuuy43e3323%q4",
"=<77>=9=35tttttty5433<<<933<==;$qpppipy454ww3<<=e2",
">=>===3q55t5tt5tw5433<34q9e>=7#%4ypdpuywqqqq23397<",
">==%33r44t5tttt444333333w9=%=%294ppuuuuqqq9q33q273",
"<<9%33333t5ttt54433333233=%=#*q34tywuuwqqqqq3939<<",
"=e==93923350w0345393<<<==%%#$93q45yqeyqqy3399339,3",
"7q<99<<,299w3993333=;;=%==&;%39qwwwwwywwqqw43399<3",
"76><99<%3=9<-09;<,<=7;=>===>31332wwwywww4q4339q373",
"==1<97<,$9=#wq276<=7:>>e>;*><<,<%qq4<44q4433,4431<",
"=%>>>>>>>&&+*=%<<%<%=39;=#%&*=<67=9999991q9e979313",
"*#%=;=;;=*6$oq1,222250<%$@@o#*<<%<,3933;39%,1<4174",
"::*<<<7<,,$@,,166=66=87:&::&*@@$,<e8<,=,<,11,1178e"
};
