/* XPM */
static char *_67f60fd1b81434887bc2bd48d3532defuBfRayols1qHNg1[] = {
/* columns rows colors chars-per-pixel */
"50 50 133 2 ",
"   c None",
".  c #010101",
"X  c #050806",
"o  c #070908",
"O  c #0C0D0D",
"+  c #150F09",
"@  c #0B140F",
"#  c #1A130C",
"$  c #0E1411",
"%  c #0F1914",
"&  c #141415",
"*  c #101B17",
"=  c #151A19",
"-  c #1B1C1D",
";  c #221C10",
":  c #15231C",
">  c #19251C",
",  c #2C2013",
"<  c #26211A",
"1  c #292118",
"2  c #30291B",
"3  c #1E1F20",
"4  c #172721",
"5  c #1C2522",
"6  c #1A2B23",
"7  c #1E332B",
"8  c #222325",
"9  c #2F2C24",
"0  c #242728",
"q  c #252A2A",
"w  c #2A2C2D",
"e  c #243728",
"r  c #23392D",
"t  c #293E2D",
"y  c #2B2F30",
"u  c #2D3132",
"i  c #243B32",
"p  c #2F3835",
"a  c #313435",
"s  c #303A36",
"d  c #3A3935",
"f  c #333639",
"g  c #343A3B",
"h  c #3A3B3D",
"j  c #46331F",
"k  c #473520",
"l  c #463B26",
"z  c #4B3922",
"x  c #2B4232",
"c  c #2D4837",
"v  c #2D423B",
"b  c #36523C",
"n  c #594228",
"m  c #63492C",
"M  c #684E2F",
"N  c #615030",
"B  c #6C5431",
"V  c #735E37",
"C  c #775E38",
"Z  c #776139",
"A  c #3B3E40",
"S  c #3D4244",
"D  c #3A4A45",
"F  c #3F4848",
"G  c #3D5B44",
"H  c #414345",
"J  c #434649",
"K  c #454B4C",
"L  c #494C4D",
"P  c #465C4D",
"I  c #4D4F52",
"U  c #4B5354",
"Y  c #4E5759",
"T  c #4F5959",
"R  c #515357",
"E  c #53565A",
"W  c #545A5D",
"Q  c #585C5F",
"!  c #565E61",
"~  c #5A5E62",
"^  c #566161",
"/  c #5E6366",
"(  c #5C6668",
")  c #5F6A6C",
"_  c #5F736C",
"`  c #62666A",
"'  c #666C6F",
"]  c #666E71",
"[  c #686F72",
"{  c #667274",
"}  c #6A7175",
"|  c #6C7679",
" . c #6D7B7D",
".. c #717A7E",
"X. c #836B3F",
"o. c #747E81",
"O. c #768385",
"+. c #798487",
"@. c #788688",
"#. c #7D8A8D",
"$. c #818F92",
"%. c #839295",
"&. c #869598",
"*. c #869F98",
"=. c #88989B",
"-. c #8B9A9D",
";. c #8B9B9D",
":. c #8D9D9F",
">. c #8B9B9D",
",. c #8D9DA0",
"<. c #8E9FA1",
"1. c #8F9FA1",
"2. c #8FA0A2",
"3. c #90A1A3",
"4. c #90A2A4",
"5. c #90A0A2",
"6. c #96A7A9",
"7. c #94A7A8",
"8. c #96A8AA",
"9. c #99ABAD",
"0. c #9AACAE",
"q. c #9DB4B2",
"w. c #9EB1B2",
"e. c #A4B8BA",
"r. c #A4B9BA",
"t. c #A5BABB",
"y. c #A7BCBD",
"u. c #A7BEBE",
"i. c #A8BDBE",
"p. c #A8BDBF",
"a. c #A9BEC0",
"s. c #ABC1C2",
"d. c #ACC2C3",
/* pixels */
"                                                                                                    ",
"                                                                                                    ",
"                                                                                                    ",
"                                                                                                    ",
"                                                                                                    ",
"                                                                                                    ",
"                                                                                                    ",
"                                                                                                    ",
"                                            w y u y u y u u w $                                     ",
"                                        = S %.5.2.2.2.2.<.2.,.K =                                   ",
"                                      . ! 5.a.a.d.d.d.d.d.d.d.<.^ O                                 ",
"                                      . W ,.y.a.a.a.a.a.a.u.r.o.H X                                 ",
"                                      . A [ $.&.&.&.%.%.&.O./ K w X                                 ",
"                                      . h / ` ` ` ` ` ` L S A h 0 X                                 ",
"                                      . A ` ` ~ ` ` R H h h h h w .                                 ",
"                                      . h / / ` ` ~ R h h h h h w .           . . . . .             ",
"                                      . A ` / ` / / R A A A A f w .           . q ! 3 .             ",
"                                      . h ` ` ~ ~ I J A A w & & O .         X * q s $ .             ",
"                                        - h ~ ` Q H h l A 0 . f f X       @ * * O                   ",
"                                        - y f f a 8 3 3 3 & . f U Y 8 X $ * * o                     ",
"                                    $ u ! ^ w - = & & = & O . y ( 9.! 5 > @ .                       ",
"                                  . p %.&.$.| W J J J H a y f #.6.#.o.~ u &                         ",
"                                  o p @.$.&.&.o.] ] ~ K u ! e.-.+.[ @.#.o.K =                       ",
"                                X t G b _ @.&.&.$.+.U 0 $.9.$.| | %.#.( $ S { - .                   ",
"                                X x G G : 0 @.%.| - T a.<.o.` #.&.$.A . . . . . .                   ",
"                            . : G *.d.u.F 0 @.J X . S %.} | %.%.` O Y o.D * .                       ",
"                            . K q.4.-.-.g X $ l V V l 3 ] #.%.A 0 R ~ } O.D .                       ",
"                            . S :.-.&.&.f + k B X.X.C N 9 3 - O 3 ~ ` ` ) f .                       ",
"                            . S &.&.{ w $ # n M B B C C ; - J = ; ~ / ~ ` a .                       ",
"                          @ F | #.U K  .` L 1 j m m z 2 h S J - & J L I ~ U f O                     ",
"                        . & { { S ^ O.8.#.] E d ; , ; w H g - o o - w A L E E & .                   ",
"                        . O A U ^ %.:.O.o.O.%.H . X O 3 3 - * o . . 8 h h J H & .                   ",
"                        . O g | 0.$.o.| #.@.^ s : % % @ $ 4 7 $ . . & 8 8 8 3 O                     ",
"                        - L *.2.+...o.&.| U > e c 7 > 6 7 r i $ .     . . . .                       ",
"                      0 { w.&.o.} #.@.} p : b x : X . X : 7 r * O                                   ",
"                  . q 7.0.$.} o.&.@.U . e G P > . . . . . * s i 4 .                                 ",
"                  . q 8.0.&.&.%.o.q . . e P ~ y .       . 0 ` D 6 .                                 ",
"                  . q 8.9.&.&.Y .     . h ` ` y .       . 0 ~ ` J X                                 ",
"                  . . O O O O X   . 3 W ~ W A 3 .       . = A E / W 0 .                             ",
"                                  . & A H H A - .       . & h H S H - .                             ",
"                                  . X O O $ + o .       . o O O O O X .                             ",
"                                                                                                    ",
"                                                                                                    ",
"                                                                                                    ",
"                                                                                                    ",
"                                                                                                    ",
"                                                                                                    ",
"                                                                                                    ",
"                                                                                                    ",
"                                                                                                    "
};
