/* XPM */
static char *result[] = {
/* columns rows colors chars-per-pixel */
"50 50 189 2 ",
"   c #30190E",
".  c #351C11",
"X  c #2F271E",
"o  c #372116",
"O  c #392116",
"+  c #3C261B",
"@  c #3E2A1E",
"#  c #3C2E20",
"$  c #3B2D28",
"%  c #3E3327",
"&  c #482B16",
"*  c #432C1E",
"=  c #4B2C1F",
"-  c #552E18",
";  c #5A2B1C",
":  c #46311E",
">  c #48301F",
",  c #55311F",
"<  c #5B321D",
"1  c #62351F",
"2  c #63391C",
"3  c #472720",
"4  c #452E23",
"5  c #4B2E24",
"6  c #522F22",
"7  c #443224",
"8  c #4C3224",
"9  c #44332B",
"0  c #4C352B",
"q  c #473A2F",
"w  c #4C3A2C",
"e  c #533425",
"r  c #5C3424",
"t  c #543926",
"y  c #5C3A26",
"u  c #53362A",
"i  c #5B3629",
"p  c #543A2C",
"a  c #5C3B2C",
"s  c #463932",
"d  c #4E3B34",
"f  c #553734",
"g  c #543D32",
"h  c #5B3D32",
"j  c #633624",
"k  c #6C3625",
"l  c #643A25",
"z  c #6A3A26",
"x  c #623629",
"c  c #643C2B",
"v  c #6B3D2B",
"b  c #713C24",
"n  c #723D2C",
"m  c #633E31",
"M  c #6B3F32",
"N  c #723D31",
"B  c #56402F",
"V  c #5C402E",
"C  c #544233",
"Z  c #5C4233",
"A  c #574A37",
"S  c #54433A",
"D  c #5D453A",
"F  c #5D493C",
"G  c #5F5038",
"H  c #6C4124",
"J  c #65422D",
"K  c #6C412D",
"L  c #73422D",
"P  c #79432C",
"I  c #74492E",
"U  c #794A2F",
"Y  c #634333",
"T  c #6B4332",
"R  c #634935",
"E  c #6B4936",
"W  c #644539",
"Q  c #6D453A",
"!  c #634B3C",
"~  c #6B4B3B",
"^  c #734433",
"/  c #7A4533",
"(  c #734A35",
")  c #7B4A34",
"_  c #72463B",
"`  c #744B3B",
"'  c #7B4D3A",
"]  c #6B523F",
"[  c #765035",
"{  c #7F5337",
"}  c #74523E",
"|  c #7C523C",
" . c #5A4640",
".. c #5E4D41",
"X. c #634D42",
"o. c #6B4D41",
"O. c #714E43",
"+. c #655243",
"@. c #6D5344",
"#. c #675943",
"$. c #6E5846",
"%. c #64524B",
"&. c #6B554A",
"*. c #6E5A4B",
"=. c #735344",
"-. c #7C5543",
";. c #725946",
":. c #7D5945",
">. c #73574B",
",. c #735B4C",
"<. c #7A5A4B",
"1. c #635754",
"2. c #6A5D55",
"3. c #735D51",
"4. c #7B5D51",
"5. c #77624E",
"6. c #7C624D",
"7. c #6E635B",
"8. c #756251",
"9. c #7B6353",
"0. c #7A6558",
"q. c #75695D",
"w. c #7D6A5D",
"e. c #736762",
"r. c #7E6F6A",
"t. c #7E7263",
"y. c #804332",
"u. c #804A31",
"i. c #844C39",
"p. c #86533F",
"a. c #825642",
"s. c #825A45",
"d. c #845D4A",
"f. c #885C49",
"g. c #905F48",
"h. c #83624D",
"j. c #8E624D",
"k. c #836455",
"l. c #8B6352",
"z. c #846A56",
"x. c #8A6F57",
"c. c #85665A",
"v. c #846B5B",
"b. c #8B6D5D",
"n. c #916652",
"m. c #976D57",
"M. c #83715E",
"N. c #8B725E",
"B. c #92735F",
"V. c #846E61",
"C. c #896F61",
"Z. c #857263",
"A. c #8C7363",
"S. c #817866",
"D. c #8C7967",
"F. c #857469",
"G. c #8E7569",
"H. c #8C7B6C",
"J. c #927463",
"K. c #937A66",
"L. c #987967",
"P. c #927769",
"I. c #947B6A",
"U. c #9B7E6C",
"Y. c #957F72",
"T. c #997E71",
"R. c #A67866",
"E. c #90806E",
"W. c #9B816D",
"Q. c #8F8272",
"!. c #948474",
"~. c #9C8373",
"^. c #9D8378",
"/. c #9B8A7A",
"(. c #A28672",
"). c #A48A74",
"_. c #A28378",
"`. c #A28B7C",
"'. c #AB8D7B",
"]. c #A3927E",
"[. c #AC917D",
"{. c #9D8D80",
"}. c #A69482",
"|. c #A99185",
" X c #AF9C83",
".X c #AD9689",
"XX c #B39784",
"oX c #B49F87",
"OX c #B49B8A",
/* pixels */
"d m m M W m W X.! F D D F W S S F &.X.u p g w 0 p u 0 0 0 0 p 0 s D.g h h W D ! D g d C g % e.~ Y s ",
"F v j K L L N T T Y T T E ^ E E 5 h.` l y r r r r r r r , , r e > L.m z v ^ T ^ M c y V y q F.( H d ",
"S l 2 I I I I ` v ^ T K ^ N v ' & j.) j j < < < r r < - - - 2 y 4 L.l z v T N Y a r r c i 8 A.( ^ u ",
"w Y T T T Y E ~ a E ] ~ ` ` e E t A.=.a e p y u e e t = p y y y 0 V.e a h W c h p p Y Z y 9 S.6.~ 7 ",
"F g 4 o O * 8 g D g w g = = + @ X.I.4 . O   o + + + . * * 4 5 4 + Z.F h p 5 4 % % 8 8 8 0 S S.K.#.X ",
"3.v.b.c.4.4.9.c.c.V.P.OXL.B.J.I.K.A.x.b.b.b.N.I.`.~.U.W.~.L.L.L.K.I.U.K.J.J.v.F.S.Z.c.C.b.Z.w.b.c.2.",
"&.:.' K c K c c c J ~ h.g.i.) ) -.| s.| a.' | E ).` l.n.n.d.| | | d.<.| -.-.h 4.A.~ ` _ ` ` ` / `  .",
"u j 1 1 v z K K m c R -.L n v n v L L L n z c r x.` z z z l c l c c c m m m a ,.I.T z l z v v z k w ",
"h z z z v v K K Y h D } ^ n n n ^ n n n v v v e k.O.k z v z c m v m m m m m Z ,.W.E z v v v K b l q ",
"h z j M K v v T E p D @./ L L n n L v z z M T e c.` v z z v v v M T T E Y Y W X.A.K v v v K z b v w ",
"h l v c M v T T T p D ;.T ^ ^ M L ^ K v T Y a t 0.@.l z c K v c Y J Y T K K E @.A.K v v z ^ n P v u ",
"p c c c M M T M M a ! 6.T T Q T T T m E Y c Z t v.} l v z v M T J T K v | ^ ' Z N.( v v z z v n v 0 ",
"8 i a c m Y a a m i D z.R E m W Y h W m c a Y = C.E v v c v M m c T ^ / / n E Z W.` l J v r i r r 9 ",
"9 8 8 8 0 u 0 t u 8 F 9.~ h ! W g h h Y Z a p 8 I.a u e e 8 u 5 t V R Y c y t A !.t V a p * 8 = 4 $ ",
"q.G.D.0.3.*.3.,.,.9.5.A.4.o.F X...X.&.4.w.N.I.!.}.}.}.`.{.!.Y.{./.K.z.9.9.w.6.E./.D.;.w.N.D.e.>.<.1.",
"F.J.I.I.I.J.A.0.0.v.v.5.>.>.<.9.F.q.I.'.B.[.).).).I.K.z.b.K.~.}.~.~.(.W.K. X).(.W.W.W.L.x.z.z.h.v.7.",
"%.Q ~ =.~ ~ Y Z a p a h Y Z a y &.Y.J.R.a.n / / ` T v ) E ` ^ o.R E J ~ ] 6.m.m.n.f.a.' ( E T ' o.g ",
"g r i i a r i i a r a i c r y < 8 '.n.) n N n k n n ) / ) ^ ^ K J Y E } ~ z.U b P n N ^ v l v v x 4 ",
"w i r x r r c x c z x i c c r l e T.n.n v v z k k / L / ^ ( K J T K T Y V N.L H I ^ P L H T K K W 9 ",
"g x x r l _ l l c x l c z i y c 8 P.( v v v v l z ^ L L L / l J ( c v J a N.v L L ) L v K K K K T q ",
"S l i j K r a c r l c v x i x y p G.Y J c v c z x ^ n L n N l v K K J Y p A.n n ^ / n n L v v K K d ",
"h l r r j r < l x L z v c z N c R z.J v c J x h i T l v T c c x V c z T r A.P v L v v K ^ N T H L u ",
"g j r r ; e y y l v m x r r m _ y B.T m J c c x m M a a h y Y a J J c Q t J.K L z m v T ^ N M Y 6 W ",
"0 8 e 5 t e e a 8 a 8 7 * 8 u p w !.o.m h p a p i h g p u p h Z Z a p y V 0.J c Y c p p u i u * M 9 ",
"..+.#.X.! ,.0.v.b.A.D.!.}.!./.I./.!.4.@.*.*.8.c.w.,.3.9.A.v.V.v.v.v.v.J.~..X,.! C B C A A W A G o. .",
"X.! Z ! Z G R ] b.OX~.A.K.I.A.k.z.9.9.9.8.,.$.! ~ ~ E Q W ~ O.=.J Y Y ;.@.~ ] #.D.S.H.!.#.~ =.;.=. .",
"4.` v v v T T Y t T.:.=.' a.) n v K ^ _ E c.:.l.` c K v ' l l j y l c e y e c m } t N.Z } ^ ' ) p.Q ",
"W L n z z z z y = /.E K v ^ / y.n v v M ~ v.` z k j l E r j j j l j r r r r e c p V ,.:.J n ^ { i.a ",
"W L ^ I n K v c 5 Y.Q c E P P / / N T v o.Z.~ z z z K x l v T l v T l c a y a Y a p @.;.J ^ T E ^ h ",
"Q ^ ^ K v v l c 8 T.R v T L P ^ n N N / E 0.~ c z l j v v v v T n M K T y y J c a h ! ~ t Q m J M g ",
"h ^ ^ ^ K v v c = `.Y T T ^ ^ ^ T N ^ / E V.~ T v v K v v v v L ^ T l a a a c c y C ! E V x R J M w ",
">.T T T K c K c 4 .XE K T M T K T M ^ ^ =.8.~ z v c l l v v v l T c c a i T J c u B ! ~ a M Y E v f ",
"! Y E M T v c K * |.<.K c M ^ T E J T ) T 0.~ v v R Q Q T T Y m c a J c M M Y c u p $.=.y K T J L g ",
"0 u e Y a a h Y 4 }.v.E Y W R =.V Z Y ' E H.W Y a a i e e e t u p Z W Z Z W Z Y D u 8.@.8 y y V a 9 ",
"2.3.&.X.X.F  .%.! /.v.3.3.0.9.3.,.*.9.v.V.A.G.c.A.G.V.I.M.M.V.V.t.v.w.3.&.+.! +.3.4.T.Z.+.3.S.K.w.1.",
"%.=.=.@.O.O.>.<.4.k.<.<.>.5.! W W J J Y ~ E O.W W W 5.W.K.l.b.l.k.>.@.<.~ E X.8.9.Q ~ h ~ ~ =.h.<.%.",
"7 d.c m c c x r l r y r i ! p , < j j j i z x l c E V :.:.j.) ^ T v ( c c e V ;.J ` K E ^ ` T ' ( w ",
"g z z z z z v v v v r x i X.B y l z l j r < r r j T p d.K b L P ^ P L K l r p ;.Z K v K K K L L v 0 ",
"D z z j x v v N z c c a u 3.Z < l b z r r r r j r a p <.v b I L P P K H c t 8 ,.t ^ ^ K K n v P T w ",
"Z v c M v M v x z c a a g 3.R y j k x r r r y a a a 0 <.( L K I P P v c a y 0 0.p _ / K K T K H T f ",
"D z z N v K M h h a f h f ! E r r l r r y a r i i h 7 >.Y K K K K K c Z C p g 3.a J c l c v z K N f ",
"Z J J T J a y a t u p p p ! Q r r i x x y a r y c a 8 O.c M K K T T m a h a p ;.~ J < j H k z 2 n f ",
"g c m x a a i i i x m m i &.D i e u i t t a a y y 4 7 4.h x a V m c h Z h h p 5.Z R e y y j c y x 0 ",
"4 0 0 4 5 4 9 8 5 f 5 u 3 +.+.4 % # 8 * + + @ @ # 4 +.w.8 * 8 : 8 7 t 8 0 8 4 V.+.0 4 0 4 5 8 w 6 9 ",
"H.~.E.H.E.Q.H.!.!././.].}.oXXXOX/.}.!._.^.^.G.T.D.T.C.A.0.A.N.K.I.).].'.~.~.I.C.P.I.A.A.M.G.F.F._.r.",
"! f.| ' ' ' ' E E E ) | ' [ p.-.b.K.} T J J Y R m R _ O.-.:.-.:.V K.<.E ` -.a.s.d.-.:.:.R E A.5.E h ",
"J P L n L / / / _ ^ / / ) K Y a @.J.-.z z j l l v j r 6 r e 6 - 0 J.a c v K n L n n v z J w F.} n d ",
"V H p.) I U U P n u.) P L v c a ! z.s.v y y l y l y l j - r r j i B.c v b L L ^ ^ v c V z 8 Z.{ n g ",
"Z P u.n y.y.P P u.U L I v T J a ! 9.h.z x x z z z z x r x j r r 8 J.r l v / P / n N v m l p v.-.^ h ",
"X.Q Q Q _ _ ` E E E W F F ! D h ..8.<.a i x m x m h h u h p h p q !.C h W E T _ _ m h g h 9 t.=.W d "
};
